<?xml version="1.0" encoding="UTF-8" standalone="no"?>
<!-- Created with Inkscape (http://www.inkscape.org/) -->

<svg
   width="210mm"
   height="297mm"
   viewBox="0 0 210 297"
   version="1.1"
   id="svg1"
   inkscape:version="1.4 (86a8ad7, 2024-10-11)"
   sodipodi:docname="gear.svg"
   xmlns:inkscape="http://www.inkscape.org/namespaces/inkscape"
   xmlns:sodipodi="http://sodipodi.sourceforge.net/DTD/sodipodi-0.dtd"
   xmlns:xlink="http://www.w3.org/1999/xlink"
   xmlns="http://www.w3.org/2000/svg"
   xmlns:svg="http://www.w3.org/2000/svg">
  <sodipodi:namedview
     id="namedview1"
     pagecolor="#ffffff"
     bordercolor="#000000"
     borderopacity="0.25"
     inkscape:showpageshadow="2"
     inkscape:pageopacity="0.0"
     inkscape:pagecheckerboard="0"
     inkscape:deskcolor="#d1d1d1"
     inkscape:document-units="mm"
     inkscape:zoom="2"
     inkscape:cx="108.25"
     inkscape:cy="213.5"
     inkscape:window-width="1440"
     inkscape:window-height="830"
     inkscape:window-x="-6"
     inkscape:window-y="-6"
     inkscape:window-maximized="1"
     inkscape:current-layer="layer1" />
  <defs
     id="defs1">
    <linearGradient
       id="linearGradient89"
       inkscape:collect="always">
      <stop
         style="stop-color:#d0d0d0;stop-opacity:1;"
         offset="0"
         id="stop89" />
      <stop
         style="stop-color:#ffffff;stop-opacity:1;"
         offset="1"
         id="stop90" />
    </linearGradient>
    <linearGradient
       id="linearGradient80"
       inkscape:collect="always">
      <stop
         style="stop-color:#ffffff;stop-opacity:1;"
         offset="0"
         id="stop81" />
      <stop
         style="stop-color:#666666;stop-opacity:1;"
         offset="1"
         id="stop80" />
    </linearGradient>
    <linearGradient
       id="linearGradient78"
       inkscape:collect="always">
      <stop
         style="stop-color:#e1e1e1;stop-opacity:1;"
         offset="0"
         id="stop79" />
      <stop
         style="stop-color:#fafafa;stop-opacity:1;"
         offset="1"
         id="stop78" />
    </linearGradient>
    <inkscape:path-effect
       effect="parallel"
       offset_pt="73.750747,30.148723"
       id="path-effect3"
       is_visible="true"
       lpeversion="1"
       length-left="150"
       length-right="150" />
    <inkscape:path-effect
       effect="circle_with_radius"
       id="path-effect2"
       is_visible="true"
       lpeversion="1" />
    <linearGradient
       inkscape:collect="always"
       xlink:href="#linearGradient78"
       id="linearGradient82"
       gradientUnits="userSpaceOnUse"
       x1="35.490566"
       y1="68.629692"
       x2="63.840321"
       y2="40.280457"
       gradientTransform="translate(25.987839,39.849886)" />
    <linearGradient
       inkscape:collect="always"
       xlink:href="#linearGradient80"
       id="linearGradient83"
       gradientUnits="userSpaceOnUse"
       x1="63.840321"
       y1="40.280457"
       x2="35.490566"
       y2="68.629692"
       gradientTransform="translate(25.987839,39.849886)" />
    <linearGradient
       inkscape:collect="always"
       xlink:href="#linearGradient89"
       id="linearGradient90"
       x1="29.508276"
       y1="69.386459"
       x2="56.858028"
       y2="42.037228"
       gradientUnits="userSpaceOnUse" />
  </defs>
  <g
     inkscape:label="Layer 1"
     inkscape:groupmode="layer"
     id="layer1">
    <circle
       style="fill:#8c8c8c;fill-opacity:1;stroke:none;stroke-width:5.92761;stroke-linecap:square"
       id="path1"
       cx="89.328072"
       cy="55.117317"
       r="9.9891777" />
    <circle
       style="fill:#ffffff;fill-opacity:1;stroke:none;stroke-width:2.64135;stroke-linecap:square;stroke-opacity:1"
       id="circle1"
       cx="89.328072"
       cy="55.117317"
       r="4.4511752" />
    <path
       style="fill:#ff0000;fill-opacity:1;fill-rule:nonzero;stroke:none;stroke-width:0.264583"
       d="M 73.750747,30.148723 Z"
       id="path2"
       inkscape:path-effect="#path-effect2;#path-effect3"
       inkscape:original-d="m 68.316199,30.148723 4.748535,2.643052" />
    <path
       id="rect52"
       style="fill:#8c8c8c;fill-opacity:1;stroke-width:10;stroke-linecap:square"
       d="m 87.097526,41.442526 -0.531234,4.398698 v 4.398698 h 5.523177 v -4.398698 l -0.530717,-4.398698 z"
       inkscape:transform-center-x="0.00019109424"
       inkscape:transform-center-y="-12.420182" />
    <path
       id="path63"
       style="fill:#8c8c8c;fill-opacity:1;stroke-width:10;stroke-linecap:square"
       d="m 97.420375,43.870546 -3.485988,2.73471 -3.110349,3.110349 3.905476,3.905476 3.110349,-3.110349 2.735077,-3.485623 z"
       inkscape:transform-center-x="-6.3714174"
       inkscape:transform-center-y="-6.3715037" />
    <path
       id="path64"
       style="fill:#8c8c8c;fill-opacity:1;stroke-width:10;stroke-linecap:square"
       d="m 103.00286,52.886772 -4.398695,-0.531234 h -4.398698 v 5.523177 h 4.398698 l 4.398695,-0.530716 z"
       inkscape:transform-center-x="-9.2760919"
       inkscape:transform-center-y="-0.0001907" />
    <path
       id="path65"
       style="fill:#8c8c8c;fill-opacity:1;stroke-width:10;stroke-linecap:square"
       d="m 100.57484,63.209619 -2.734707,-3.485986 -3.110349,-3.110349 -3.905476,3.905476 3.110349,3.110349 3.48562,2.735074 z"
       inkscape:transform-center-x="-6.3715024"
       inkscape:transform-center-y="6.3714163" />
    <path
       id="path66"
       style="fill:#8c8c8c;fill-opacity:1;stroke-width:10;stroke-linecap:square"
       d="m 91.558616,68.792105 0.531235,-4.398694 v -4.398698 h -5.523177 v 4.398698 l 0.530716,4.398695 z"
       inkscape:transform-center-x="-0.0001909"
       inkscape:transform-center-y="9.2760923" />
    <path
       id="path67"
       style="fill:#8c8c8c;fill-opacity:1;stroke-width:10;stroke-linecap:square"
       d="m 81.235769,66.364085 3.485987,-2.734706 3.110349,-3.110349 -3.905476,-3.905476 -3.110349,3.110349 -2.735074,3.48562 z"
       inkscape:transform-center-x="6.3714161"
       inkscape:transform-center-y="6.3715023" />
    <path
       id="path68"
       style="fill:#8c8c8c;fill-opacity:1;stroke-width:10;stroke-linecap:square"
       d="m 75.653284,57.347861 4.398694,0.531236 h 4.398698 V 52.35592 h -4.398698 l -4.398695,0.530716 z"
       inkscape:transform-center-x="9.2760921"
       inkscape:transform-center-y="0.0001913" />
    <path
       id="path69"
       style="fill:#8c8c8c;fill-opacity:1;stroke-width:10;stroke-linecap:square"
       d="m 78.283675,46.75093 2.648167,3.552173 3.032932,3.185885 4.000322,-3.808269 -3.032933,-3.185885 -3.417317,-2.81995 z"
       inkscape:transform-center-x="6.2036861"
       inkscape:transform-center-y="-6.5353812" />
    <path
       id="path88"
       style="fill:#0b0b0b;stroke-linecap:square;fill-opacity:1;stroke:#0b0b0b;stroke-opacity:1;stroke-width:2;stroke-dasharray:none"
       d="M 39.843563 40.787174 L 39.382609 44.609163 C 39.00857 44.738217 38.642912 44.886477 38.283451 45.052547 L 35.310506 42.599467 L 30.474626 47.204871 L 32.783012 50.300806 C 32.515234 50.819641 32.288 51.356102 32.099849 51.908459 L 28.257707 52.370964 L 28.257707 59.048592 L 32.091581 59.51368 C 32.250634 59.976194 32.4371 60.42779 32.652271 60.867086 L 30.26947 63.90411 L 34.992179 68.626819 L 38.027136 66.241951 C 38.465934 66.457471 38.918033 66.644922 39.381059 66.804708 L 39.843563 70.634965 L 46.521708 70.634965 L 46.984212 66.804708 C 47.44719 66.644923 47.899324 66.457475 48.338135 66.241951 L 51.376709 68.626819 L 56.097868 63.90411 L 53.713 60.869153 C 53.928718 60.428966 54.115879 59.977121 54.27524 59.51368 L 58.107564 59.050659 L 58.107564 52.375098 L 54.27524 51.91001 C 54.115879 51.446569 53.928718 50.994725 53.713 50.554537 L 56.097868 47.51958 L 51.376709 42.796871 L 48.338135 45.181738 C 47.899324 44.966214 47.44719 44.778767 46.984212 44.618982 L 46.521708 40.787174 L 39.843563 40.787174 z M 40.73033 41.787113 L 45.634941 41.787113 L 46.066439 45.345553 L 46.374947 45.443221 C 47.000276 45.638619 47.604117 45.891154 48.185689 46.19718 L 48.472493 46.347559 L 51.297127 44.13064 L 54.763582 47.599679 L 52.546663 50.421729 L 52.699109 50.709049 C 53.004829 51.290055 53.255197 51.894388 53.451001 52.521342 L 53.547119 52.82985 L 57.107625 53.259798 L 57.107625 58.163892 L 53.547119 58.59384 L 53.451001 58.902348 C 53.255197 59.529302 53.004829 60.133634 52.699109 60.71464 L 52.546663 61.001961 L 54.763582 63.824011 L 51.297127 67.29305 L 48.472493 65.076131 L 48.185689 65.22651 C 47.604117 65.532537 47.000276 65.785071 46.374947 65.980469 L 46.066439 66.07607 L 45.634941 69.634509 L 40.73033 69.634509 L 40.298832 66.07607 L 39.990324 65.980469 C 39.364926 65.785106 38.761337 65.532594 38.179582 65.22651 L 37.892778 65.076131 L 35.070211 67.29305 L 31.603756 63.824011 L 33.818608 61.001961 L 33.667712 60.71464 C 33.361934 60.13345 33.110039 59.529371 32.91427 58.902348 L 32.818152 58.59384 L 29.257646 58.163892 L 29.257646 53.259798 L 32.82642 52.82985 L 32.922021 52.519792 C 33.141648 51.808385 33.431142 51.123802 33.791219 50.472888 L 33.947282 50.191252 L 31.806844 47.316492 L 35.357532 43.933752 L 38.124805 46.218884 L 38.41626 46.07419 C 38.925053 45.821095 39.451046 45.610077 39.993941 45.439604 L 40.300899 45.341935 L 40.73033 41.787113 z M 43.183411 51.08422 C 40.627324 51.084311 38.554845 53.154441 38.554753 55.710811 C 38.554845 58.267183 40.627324 60.337828 43.183411 60.337919 C 45.739688 60.338098 47.810426 58.267026 47.810518 55.710811 C 47.810426 53.154597 45.739688 51.084041 43.183411 51.08422 z M 43.183411 52.084159 C 45.204008 52.084017 46.810506 53.69015 46.810579 55.710811 C 46.810506 57.731473 45.204008 59.338122 43.183411 59.33798 C 41.162968 59.337908 39.554765 57.73097 39.554692 55.710811 C 39.554765 53.690654 41.162968 52.084231 43.183411 52.084159 z "
       inkscape:export-filename="gear1.webp"
       inkscape:export-xdpi="16.747328"
       inkscape:export-ydpi="16.747328" />
    <path
       style="fill:url(#linearGradient90);stroke-linecap:square"
       d="m 40.952539,42.037228 -0.415996,3.446301 a 10.58449,10.58449 0 0 0 -2.482535,1.000456 l -2.684074,-2.214852 -3.231328,3.076298 2.068608,2.775541 a 10.58449,10.58449 0 0 0 -1.252637,2.944006 l -3.446301,0.415995 V 57.9422 l 3.446301,0.415995 a 10.58449,10.58449 0 0 0 1.12603,2.712496 l -2.144572,2.733167 3.154846,3.154846 2.733167,-2.144572 a 10.58449,10.58449 0 0 0 2.712495,1.126029 l 0.415996,3.446302 h 4.461226 l 0.415995,-3.446302 a 10.58449,10.58449 0 0 0 2.71198,-1.126029 l 2.733683,2.144572 3.154329,-3.154846 -2.144572,-2.733167 a 10.58449,10.58449 0 0 0 1.12603,-2.711979 l 3.446818,-0.415995 V 53.48149 L 53.41121,53.064978 a 10.58449,10.58449 0 0 0 -1.12603,-2.711979 l 2.144572,-2.733166 -3.154329,-3.154847 -2.733683,2.144572 a 10.58449,10.58449 0 0 0 -2.71198,-1.126029 l -0.415995,-3.446301 z m 2.230355,8.797395 a 4.8773956,4.8773956 0 0 1 4.877738,4.877222 4.8773956,4.8773956 0 0 1 -4.877738,4.877222 4.8773956,4.8773956 0 0 1 -4.877222,-4.877222 4.8773956,4.8773956 0 0 1 4.877222,-4.877222 z"
       id="path85"
       inkscape:export-filename="gear.webp"
       inkscape:export-xdpi="17.869432"
       inkscape:export-ydpi="17.869432" />
    <path
       style="fill:#8b8b8b;stroke-linecap:square;fill-opacity:1"
       d="m 40.287239,41.288021 -0.443359,3.673828 c -0.567456,0.178185 -1.117868,0.399164 -1.650391,0.664063 l -2.859375,-2.359375 -4.193359,3.99414 2.21289,2.970703 c -0.376797,0.681139 -0.680537,1.396853 -0.910156,2.140625 l -3.685547,0.44336 v 5.791015 l 3.679688,0.445313 c 0.204734,0.655739 0.467253,1.288536 0.787109,1.896484 l -2.289062,2.916016 4.095703,4.095703 2.916015,-2.291016 c 0.607489,0.319623 1.239318,0.584386 1.894532,0.789063 l 0.445312,3.677734 h 5.791016 l 0.445312,-3.677734 c 0.65509,-0.204697 1.287159,-0.46946 1.894532,-0.789063 l 2.917968,2.291016 4.09375,-4.095703 -2.289062,-2.916016 c 0.319836,-0.607832 0.582354,-1.24087 0.787109,-1.896484 l 3.679688,-0.44336 v -5.791015 l -3.679688,-0.445313 c -0.204755,-0.655614 -0.467273,-1.288652 -0.787109,-1.896484 l 2.289062,-2.916016 -4.09375,-4.095703 -2.917968,2.291016 c -0.607373,-0.319603 -1.239442,-0.584366 -1.894532,-0.789063 l -0.445312,-3.677734 z m 1.330078,1.5 h 3.13086 l 0.398437,3.292969 0.494141,0.128906 c 0.884471,0.229975 1.732283,0.58079 2.519531,1.044922 l 0.441406,0.261719 2.613282,-2.050782 2.214843,2.214844 -2.050781,2.611328 0.259766,0.441406 c 0.464132,0.787248 0.816899,1.635061 1.046875,2.519532 l 0.128906,0.496093 3.292969,0.396485 v 3.132812 l -3.292969,0.396485 -0.128906,0.496093 c -0.229976,0.884471 -0.582743,1.732284 -1.046875,2.519532 l -0.259766,0.441406 2.050781,2.611328 -2.214843,2.214844 -2.613282,-2.050781 -0.441406,0.261718 c -0.787248,0.464132 -1.63506,0.814947 -2.519531,1.044922 l -0.494141,0.128906 -0.398437,3.292969 h -3.13086 L 41.220833,65.342708 40.724739,65.213802 C 39.840103,64.983869 38.992605,64.633053 38.205208,64.16888 l -0.441406,-0.261718 -2.613282,2.050781 -2.214843,-2.214844 2.050781,-2.611328 -0.259766,-0.441406 C 34.26252,59.902967 33.909751,59.053517 33.679817,58.16888 l -0.128906,-0.49414 -3.292969,-0.396485 v -3.132812 l 3.296875,-0.396485 0.126953,-0.498046 c 0.247116,-0.965509 0.639741,-1.888768 1.164063,-2.736329 l 0.267578,-0.433593 -1.976562,-2.650391 2.269531,-2.160156 2.566406,2.11914 0.447266,-0.251953 c 0.726443,-0.406213 1.501527,-0.716733 2.30664,-0.927734 l 0.494141,-0.130859 z m 1.566407,7.296875 c -3.098887,1.1e-4 -5.628796,2.528066 -5.628907,5.626953 1.11e-4,3.098887 2.53002,5.626843 5.628907,5.626953 3.099116,2.18e-4 5.626842,-2.527836 5.626953,-5.626953 -1.11e-4,-3.099116 -2.527837,-5.627171 -5.626953,-5.626953 z m 0,1.5 c 2.288437,-1.61e-4 4.126871,1.838515 4.126953,4.126953 -8.2e-5,2.288438 -1.838516,4.127114 -4.126953,4.126953 -2.288265,-8.1e-5 -4.128825,-1.838688 -4.128907,-4.126953 8.2e-5,-2.288264 1.840642,-4.126872 4.128907,-4.126953 z"
       id="path87" />
    <g
       id="path81"
       transform="translate(7.303335,-1.8708867)"
       style="stroke:#0b0b0b;stroke-opacity:1;stroke-width:0.5;stroke-dasharray:none">
      <path
         style="fill:url(#linearGradient82);stroke-linecap:square;stroke:#0b0b0b;stroke-opacity:1;stroke-width:0.5;stroke-dasharray:none"
         d="m 73.42267,80.630343 -0.415996,3.446301 A 10.58449,10.58449 0 0 0 70.524139,85.0771 l -2.684074,-2.214852 -3.231328,3.076298 2.068608,2.775541 a 10.58449,10.58449 0 0 0 -1.252637,2.944006 l -3.446301,0.415995 v 4.461227 l 3.446301,0.415995 a 10.58449,10.58449 0 0 0 1.12603,2.712496 l -2.144572,2.733164 3.154846,3.15485 2.733167,-2.14457 a 10.58449,10.58449 0 0 0 2.712495,1.12603 l 0.415996,3.4463 h 4.461226 l 0.415995,-3.4463 a 10.58449,10.58449 0 0 0 2.71198,-1.12603 l 2.733683,2.14457 3.154329,-3.15485 -2.144572,-2.733164 a 10.58449,10.58449 0 0 0 1.12603,-2.711979 l 3.446818,-0.415995 v -4.461227 l -3.446818,-0.416512 a 10.58449,10.58449 0 0 0 -1.12603,-2.711979 l 2.144572,-2.733166 -3.154329,-3.154847 -2.733683,2.144572 a 10.58449,10.58449 0 0 0 -2.71198,-1.126029 l -0.415995,-3.446301 z m 2.230355,8.797395 a 4.8773956,4.8773956 0 0 1 4.877738,4.877222 4.8773956,4.8773956 0 0 1 -4.877738,4.877222 4.8773956,4.8773956 0 0 1 -4.877222,-4.877222 4.8773956,4.8773956 0 0 1 4.877222,-4.877222 z"
         id="path83" />
      <path
         style="fill:url(#linearGradient83);stroke-linecap:square;stroke:#0b0b0b;stroke-opacity:1;stroke-width:0.5;stroke-dasharray:none"
         d="m 72.757812,79.880859 -0.443359,3.673828 c -0.568034,0.178367 -1.11932,0.398808 -1.652344,0.664063 l -2.857422,-2.357422 -4.195312,3.992188 2.214844,2.970703 c -0.377011,0.681292 -0.680408,1.396649 -0.910157,2.140625 l -3.685546,0.443359 v 5.792969 l 3.679687,0.443359 c 0.204735,0.655739 0.467253,1.288536 0.787109,1.896485 l -2.289062,2.916014 4.09375,4.0957 2.919922,-2.28906 c 0.606801,0.31909 1.23818,0.58269 1.892578,0.78711 l 0.445312,3.67969 h 5.791016 l 0.445313,-3.67969 c 0.654274,-0.20444 1.285892,-0.46804 1.892578,-0.78711 l 2.919922,2.28906 4.09375,-4.0957 -2.289063,-2.916014 c 0.319555,-0.607299 0.582431,-1.239528 0.787109,-1.894532 l 3.679688,-0.445312 v -5.791016 l -3.679688,-0.445312 c -0.204754,-0.655615 -0.467273,-1.288652 -0.787109,-1.896485 l 2.289063,-2.916015 -4.09375,-4.095703 -2.917969,2.291015 c -0.607299,-0.319554 -1.239528,-0.582431 -1.894531,-0.787109 l -0.445313,-3.679688 z m 1.330079,1.5 h 3.130859 l 0.398437,3.292969 0.494141,0.128906 c 0.884471,0.229976 1.732283,0.582744 2.519531,1.046875 l 0.441407,0.259766 2.613281,-2.050781 2.21289,2.214843 -2.048828,2.613282 0.259766,0.439453 c 0.464132,0.787247 0.816899,1.637014 1.046875,2.521484 l 0.126953,0.494141 3.294922,0.398437 v 3.13086 l -3.294922,0.396484 -0.126953,0.496094 c -0.229976,0.884471 -0.582743,1.732284 -1.046875,2.519531 l -0.259766,0.441406 2.048828,2.611331 -2.21289,2.21484 -2.613281,-2.04883 -0.441407,0.25977 c -0.787248,0.46413 -1.63506,0.81495 -2.519531,1.04492 l -0.494141,0.12891 -0.398437,3.29492 h -3.130859 l -0.398438,-3.29492 -0.494141,-0.12891 c -0.884636,-0.22993 -1.732133,-0.58075 -2.519531,-1.04492 l -0.441406,-0.25977 -2.613281,2.04883 -2.214844,-2.21484 2.050781,-2.611331 -0.259765,-0.441406 c -0.464173,-0.787398 -0.816942,-1.636848 -1.046875,-2.521484 l -0.128907,-0.494141 -3.292968,-0.396484 v -3.132813 l 3.294921,-0.396484 0.126954,-0.498047 c 0.247115,-0.965508 0.63974,-1.886814 1.164062,-2.734375 l 0.269531,-0.433594 -1.976562,-2.652344 2.267578,-2.160156 2.568359,2.119141 0.447266,-0.25 c 0.726444,-0.406213 1.501527,-0.718687 2.306641,-0.929688 l 0.492187,-0.130859 z m 1.564453,7.296875 c -3.098887,1.11e-4 -5.626843,2.528067 -5.626953,5.626953 1.1e-4,3.098887 2.528066,5.626843 5.626953,5.626954 3.099116,2.17e-4 5.628796,-2.527837 5.628906,-5.626954 -1.1e-4,-3.099116 -2.52979,-5.62717 -5.628906,-5.626953 z m 0,1.5 c 2.288438,-1.6e-4 4.128825,1.838516 4.128906,4.126953 -8.1e-5,2.288438 -1.840468,4.127114 -4.128906,4.126954 -2.288265,-8.2e-5 -4.126872,-1.838689 -4.126953,-4.126954 8.1e-5,-2.288264 1.838688,-4.126871 4.126953,-4.126953 z"
         id="path84" />
    </g>
  </g>
</svg>
