<?xml version="1.0" encoding="UTF-8" standalone="no"?>
<!-- Created with Inkscape (http://www.inkscape.org/) -->

<svg
   width="1920"
   height="270"
   viewBox="0 0 507.99999 71.4375"
   version="1.1"
   id="svg1"
   xmlns="http://www.w3.org/2000/svg"
   xmlns:svg="http://www.w3.org/2000/svg">
  <defs
     id="defs1" />
  <g
     id="layer1">
    <path
       style="fill:#00e600;fill-opacity:1;stroke-width:5.29201;stroke-linecap:round;stroke-linejoin:round"
       d="m -8.6011212,25.803364 c 0.2389201,0.955681 -0.2389201,3.10596 0.71676,2.867039 0.9556802,-0.238919 -1.1573068,-3.748133 -0.71676,-2.867039 0.912912,1.825824 1.3212162,3.868685 2.1502801,5.73408 1.4560711,3.276161 5.2221351,4.966163 7.1676012,7.884361 0.132529,0.198795 -0.16894198,0.54782 0,0.716761 0.071676,0.07168 2.0786043,0.07168 2.1502802,0 0.5668857,-0.566885 0.4546904,-3.776421 0.7167602,-4.300561 0.2070693,-0.414139 2.5712274,-1.558655 2.8670406,-2.150279 0.2136965,-0.427395 -0.2458469,-1.023776 0,-1.433521 4.3036889,-7.172816 -2.275e-4,3.584255 4.3005609,-5.01732 0.213696,-0.427394 -0.213697,-1.006128 0,-1.433521 0.05396,-0.10792 3.873497,-5.154688 4.30056,-4.300561 1.703554,3.407108 -3.232113,10.413101 -4.30056,13.618443 -0.415467,1.246399 -1.6973261,3.319995 -1.4335206,3.5838 0.5492906,0.549291 1.8403376,-1.840338 3.5838006,-3.5838 1.466566,-1.466567 7.259701,-6.450843 9.317881,-6.450843 3.194077,0 5.914786,5.24169 7.884361,5.734082 1.153731,0.288433 1.423844,-1.070303 2.150281,-1.433521 2.190491,-1.095245 4.253114,-2.484937 6.450841,-3.583799 0.751983,-0.375992 3.01171,0.57209 3.5838,0 2.03047,-4.060938 -0.801362,0.534241 2.150282,-1.433521 4.874911,-3.249941 -4.538427,0.477314 2.150279,-2.86704 0.456007,-0.228003 4.441838,-0.287742 5.01732,0 0.307427,0.153713 4.14896,2.942841 4.300561,2.86704 1.460506,-0.730252 0.355074,-8.420278 0.716759,-8.601121 0.926653,-0.463326 1.830674,2.627334 2.150282,2.86704 0.604425,0.453319 1.58559,0.214813 2.15028,0.716761 1.883619,1.674327 8.198,8.855104 9.317881,11.468161 0.871498,2.033492 1.670164,4.303977 2.150282,3.5838 0.546431,-0.819645 0.405246,-1.932499 0.716759,-2.867039 0.440547,-1.321641 1.709735,-2.262161 2.150279,-3.583802 0.253249,-0.759743 0.328457,-4.748715 0,-5.73408 -0.106847,-0.320545 -0.58366,-0.406196 -0.716759,-0.71676 -0.595236,-1.388886 -0.902951,-2.885709 -1.43352,-4.300561 -0.265285,-0.707426 -1.449734,-1.967037 -0.716759,-2.15028 4.433996,-1.108499 5.470938,2.603898 7.884361,5.01732 0.04449,2.018209 1.616038,0.182519 2.150279,0.716761 0.377767,0.377765 0.338995,1.055754 0.716759,1.43352 0.168944,0.168942 0.503066,-0.106848 0.716762,0 3.181675,1.590837 5.484958,4.222621 9.317881,3.583801 2.511208,-0.418534 6.478537,-2.756863 8.601116,-4.300561 4.62002,-3.360014 5.15483,-5.950084 10.75141,-5.017321 0.33328,0.05555 0.41454,0.565654 0.71676,0.71676 10.35724,5.178621 -0.55402,-1.311465 5.01732,2.86704 0.25557,1.76073 1.52164,0.297667 2.15028,0.716761 1.32901,0.886009 1.66819,1.550854 2.86704,2.15028 0.30221,0.151106 0.39187,0.809585 0.71676,0.716761 13.37952,-3.822722 0,-0.955681 5.73408,-2.867041 1.6501,-0.550036 3.41175,-0.764534 5.01732,-1.43352 1.28597,-0.53582 2.20962,-1.921251 3.5838,-2.150281 5.55308,-0.925514 7.93534,3.600794 12.18492,5.017321 2.22937,0.74312 1.40075,1.88951 2.86704,2.867039 1.89533,1.263552 4.00355,-0.148503 5.73408,0.716762 0.90664,0.453318 1.30688,1.588008 2.15028,2.150279 0.43909,0.292727 1.53091,0.716761 2.15028,0.716761 0.23893,0 0.71677,-0.238921 0.71677,0 0,1.153661 -5.96211,4.829959 -7.16761,5.73408 -0.85478,0.64109 -3.62257,2.189053 -2.86704,1.43352 3.20473,-3.204729 8.06598,-3.840477 12.18492,-5.01732 1.54106,-0.440301 2.75951,-1.709978 4.30057,-2.15028 0.68918,-0.19691 1.50918,0.320546 2.15028,0 0.90663,-0.453318 1.38065,-1.490604 2.15028,-2.150281 1.16153,-0.995604 2.21547,-2.182876 3.5838,-2.867039 0.21369,-0.106849 0.54781,0.168942 0.71676,0 1.75432,-1.754325 -5.13092,0.475494 1.43352,-2.150281 1.5112,-0.60448 13.89856,-0.128156 15.05196,0 2.41471,0.268301 6.44505,1.072247 8.60112,2.150281 1.82764,0.913818 1.60509,4.027964 3.5838,5.01732 2.21927,1.109634 7.66137,-7.093272 10.03464,-7.884361 0.90664,-0.302213 1.91136,0 2.86704,0 0.47784,0 1.00613,-0.213697 1.43352,0 2.48325,1.241623 4.75507,3.638728 7.16761,5.017321 2.07174,1.183857 4.52039,1.580078 6.45084,2.86704 0.59659,0.397727 2.54585,2.47146 2.86704,2.15028 2.9037,-2.903704 8.87388,-14.005361 14.3352,-12.184922 1.3751,0.458369 6.58955,3.999929 7.1676,5.734081 0.46551,1.396532 -1.08426,5.850504 0.71676,6.450841 1.28145,0.427151 14.45566,-4.059619 15.05195,-2.867041 0.46535,0.93068 -0.23587,10.506382 -0.71675,11.468163 -0.0933,0.186608 -1.27707,0.87321 -0.71676,1.433521 0.67577,0.675767 1.91135,0 2.86705,0 4.37735,0 -0.26723,0.140568 5.73408,-0.716762 4.2477,-0.606814 8.09117,0.13194 12.18491,0.716762 0.47305,0.06757 1.00613,-0.213699 1.43351,0 0.4205,0.21024 3.36132,2.916309 3.58381,3.583799 0.55605,1.668153 -0.66082,3.253391 1.43354,4.300562 1.32112,0.660564 4.60467,-5.625584 5.01732,-6.450841 2.45806,-4.916141 0.63947,-2.131639 2.15027,-7.167602 0.80356,-2.678549 2.06348,-5.205812 2.86705,-7.884361 0.20209,-0.673634 1.13231,-6.866393 1.43351,-7.167602 1.32633,-1.326323 5.10442,4.135792 5.73408,5.01732 0.80973,1.133639 1.61446,2.297835 2.15027,3.583802 0.32403,0.777653 2.87155,8.847548 3.5838,10.034641 0.27488,0.458107 1.13718,0.272245 1.43352,0.716761 0.26506,0.397587 -0.21368,1.006126 0,1.433521 0.10686,0.213696 0.49011,-0.07555 0.71678,0 0.50681,0.168941 0.95567,0.47784 1.43351,0.716759 4.5938,2.296895 9.06695,-0.232921 12.90169,-2.15028 0.47784,-0.238921 1.05574,-0.338994 1.43352,-0.716761 0.16893,-0.168942 -0.22667,-0.641207 0,-0.716759 2.6077,-0.869241 3.15248,0.489664 5.01732,-2.867041 0.99136,-1.784448 1.65518,-3.753697 2.15026,-5.734082 0.82799,-3.311895 1.83428,-10.933824 3.58381,-8.60112 0.59105,0.788074 0.37087,1.944669 0.71676,2.867041 0.93792,2.501128 2.59175,4.687446 3.58381,7.1676 0.84179,2.10448 1.25743,4.367511 2.15026,6.45084 0.5488,1.280491 1.6015,2.303312 2.1503,3.583803 0.18822,0.439203 -0.2985,1.060389 0,1.43352 3.96994,4.962422 12.92249,7.313033 18.63577,7.884361 3.30359,0.330359 20.70028,-1.347782 22.21955,-2.867041 2.80691,-2.806898 1.20128,-7.984807 1.43351,-11.468163 0.30422,-4.563181 1.43354,-9.026689 1.43354,-13.618441 0,-0.71676 -0.67998,-2.37694 0,-2.150281 3.57828,1.192761 3.39659,10.211162 7.16759,11.468163 2.98733,0.995773 7.7751,-4.705551 9.31788,-5.734081 1.35581,-0.903873 4.14137,-1.619375 5.73408,-2.15028 0.73742,-0.245811 3.65691,-0.21455 4.30056,0 0.81725,0.27241 1.33305,1.161108 2.1503,1.433518 0.45331,0.151106 1.09561,-0.337883 1.43351,0 0.16894,0.168944 -0.2137,0.609912 0,0.716762 0.42738,0.213696 0.9802,-0.151107 1.43351,0 0.97309,0.324363 1.67685,1.13597 2.86705,1.43352 0.69535,0.173839 1.47029,-0.226661 2.15027,0 3.57092,1.190308 6.86843,2.514042 10.7514,2.867041 2.79328,0.253934 8.61107,-1.328288 10.75142,-0.716762 1.45291,0.415121 2.84763,1.0184 4.30054,1.433521 0.60113,0.171751 1.59594,-0.27718 2.15029,0 1.14681,0.573407 1.72022,2.293633 2.86703,2.867041 1.7789,0.889439 4.13467,3.583799 6.45086,3.583799 0.37404,0 12.37684,-6.834711 12.90166,-7.884361 0.32364,-0.647234 0.15486,-4.223128 1.43354,-3.583799 1.30749,0.653745 0.94337,2.603502 1.43351,3.583799 0.68745,1.374894 3.6249,5.406528 5.01732,6.450841 0.42739,0.320545 1.13718,0.272246 1.43352,0.716761 0.26506,0.397587 -0.33788,1.095637 0,1.433521 0.33766,0.337656 4.31464,0.35134 5.01732,0 3.07869,-1.539338 3.88921,-3.30957 6.45086,-5.01732 4.30405,-2.869377 8.49288,-6.231729 12.90166,-9.317882 2.66224,-1.863561 5.43875,-3.594163 7.88437,-5.734082 0.40206,-0.3518 0.44188,-0.975412 0.71676,-1.43352 4.50453,-7.507557 7.57907,-14.6273135 6.45083,-23.6530835 -0.53763,-4.3010478 -4.53662,-7.6397355 -6.45083,-11.4681615 -2.01626,-4.032523 -3.53534,-8.227186 -5.73408,-12.184923 -0.99814,-1.796627 -2.66467,-3.179033 -3.5838,-5.01732 -0.21371,-0.427393 0.39147,-1.159497 0,-1.433521 -2.18835,-1.531837 -4.59386,-2.868866 -7.16759,-3.5838 -1.84164,-0.511564 -3.82379,0.06368 -5.73411,0 -7.16758,-0.238918 -14.35404,-0.144859 -21.50279,-0.716759 -10.04795,-0.803835 -20.06682,-1.937678 -30.10392,-2.86704 -20.78273,-1.924328 1.94583,0.996092 -15.05196,-2.867041 -20.28322,-4.609825 1.24934,1.334873 -17.91901,-2.150282 -11.29541,-2.053712 -22.3225,-5.543997 -33.68773,-7.1676 -6.4253,-0.9179 -12.9272,-1.232378 -19.35253,-2.150282 -5.2887,-0.75553 -10.47316,-2.160965 -15.76871,-2.867038 -5.46751,-0.729001 -10.99696,-0.884668 -16.48547,-1.43352 -15.30575,-1.530575 -30.53768,-3.814577 -45.87267,-5.017323 -20.94516,-1.642758 -42.08127,-1.992304 -63.07488,-2.867038 -15.75641,-0.656519 -31.5266,-1.776555 -47.30616,-1.433521 -38.58706,0.838849 -5.47892,0.348565 -33.68773,1.433521 -8.12079,0.312338 -16.25707,0.239538 -24.36984,0.716759 -6.3311,0.372417 -21.62896,2.904053 -27.23688,3.583799 -2.856079,0.346192 -5.755978,0.289989 -8.601127,0.716762 -8.443611,1.266542 -16.75388,3.92262 -25.086604,5.734082 -2.840249,0.617445 -5.810795,0.619675 -8.60112,1.433517 -4.216791,1.2299 -8.106595,3.385992 -12.184922,5.017323 -6.410386,2.564154 -1.008697,-0.02484 -7.884361,5.01732 -2.084004,1.528271 -4.418748,2.703915 -6.450841,4.300562 -6.07589,4.773911 -11.182665,11.970797 -17.202243,16.485481 -0.427393,0.320545 -1.055754,0.338995 -1.43352,0.716761 -0.377766,0.377765 -0.338994,1.055754 -0.71676,1.43352 -0.981834,0.981834 -3.1024262,1.431399 -4.3005608,2.15028 -1.4773547,0.886413 -2.6660962,2.322219 -4.3005605,2.86704 -0.6799783,0.22666 -1.4407242,-0.101365 -2.1502804,0 -1.93757521,0.276797 -10.4045918,2.520231 -11.4681617,3.583801 -0.609129,0.609129 -0.7443696,1.633417 -1.4335206,2.15028 -0.382272,0.286704 -0.95568,0 -1.43352,0 -0.71676,0.71676 -1.517057,1.358752 -2.15028,2.1502806 -0.877134,1.0964169 -3.384365,5.8525332 -3.583801,6.4508411 -0.302212,0.9066377 0.157113,1.92436321 0,2.8670403 -0.08783,0.52697252 -0.611986,0.90965339 -0.71676,1.4335202 -0.281136,1.4056822 0.281137,2.8948784 0,4.3005607 -0.104773,0.5238668 -0.611987,0.9096533 -0.71676,1.4335201 -0.50586,2.5293008 -0.05464,5.570171 0.71676,7.884361 0.126831,0.380492 0.654323,3.521363 0.71676,3.583801 0.59962,0.599619 3.622966,0.03917 4.300561,0.71676 0.168942,0.168942 -0.168942,0.547818 0,0.71676 0.168942,0.168942 0.503064,-0.106848 0.71676,0 2.136966,1.068483 2.9118661,3.789909 4.3005608,5.734081 z"
       id="path1" />
  </g>
</svg>
